<svg id="Layer_1" enable-background="new 0 0 128 128" height="512" viewBox="0 0 128 128" width="512" xmlns="http://www.w3.org/2000/svg"><g>


<path d="m109 29.1v54.9c0 3-2.1 5.5-4.8 5.5h-80.4c-2.7 0-4.8-2.5-4.8-5.5v-54.9c0-3 2.1-5.5 4.8-5.5h80.4c2.7 0 4.8 2.5 4.8 5.5z" fill="#37d4e9"/>

<path d="m19 31h90v48.1h-90z" fill="#fffcee"/><g fill="#01014c">

<path d="m86.7 55.4-11.7-5.8c-.9-.4-1.9-.1-2.3.8s-.1 1.9.8 2.3l8.5 4.3-8.6 4.2c-.9.4-1.2 1.5-.8 2.3.3.6.9 1 1.6 1 .3 0 .5-.1.8-.2l11.7-5.8c.6-.3 1-.9 1-1.6s-.4-1.2-1-1.5z"/>

<path d="m55.4 50.4c-.4-.9-1.5-1.2-2.3-.8l-11.7 5.8c-.6.3-1 .9-1 1.6s.4 1.3 1 1.6l11.6 5.8c.3.1.5.2.8.2.6 0 1.3-.4 1.6-1 .4-.9.1-1.9-.8-2.3l-8.6-4.3 8.6-4.2c.9-.5 1.2-1.5.8-2.4z"/>

<path d="m69 45.4c-.9-.4-1.9 0-2.3.9l-8.7 20.6c-.4.9 0 1.9.9 2.3.2.1.5.1.7.1.7 0 1.3-.4 1.6-1.1l8.8-20.5c.3-.9-.1-2-1-2.3z"/></g>

<path d="m74 104.4h-20l1.3-14.9h17.4z" fill="#2568ef"/>

<path d="m82.3 106.1h-36.6c-1 0-1.8-.8-1.8-1.8s.8-1.8 1.8-1.8h36.7c1 0 1.8.8 1.8 1.8s-.9 1.8-1.9 1.8z" fill="#37d4e9"/></g>

<g fill="#01014c">
<path d="m104.2 21.9h-20.7c-1 0-1.8.8-1.8 1.8s.8 1.8 1.8 1.8h20.7c1.7 0 3 1.7 3 3.8v.1h-86.4v-.1c0-2.1 1.4-3.8 3-3.8h37.7c1 0 1.8-.8 1.8-1.8s-.8-1.8-1.8-1.8h-37.7c-3.6 0-6.5 3.3-6.5 7.3v54.8c0 4 2.9 7.3 6.5 7.3h29.6l-1 11.4h-6.7c-1 0-1.8.8-1.8 1.8s.8 1.8 1.8 1.8h36.7c1 0 1.8-.8 1.8-1.8s-.8-1.8-1.8-1.8h-6.7l-1-11.4h29.6c3.6 0 6.5-3.3 6.5-7.3v-54.9c0-4-3-7.2-6.6-7.2zm3.1 10.9v44.6h-86.5v-44.6zm-35.2 69.8h-16.2l1-11.4h14.2zm32.1-14.9h-31.5-17.4-31.5c-1.7 0-3-1.7-3-3.8v-3.2h86.5v3.3c0 2-1.4 3.7-3.1 3.7z"/>

<path d="m71.7 25.4h1.7c1 0 1.8-.8 1.8-1.8s-.8-1.8-1.8-1.8h-1.7c-1 0-1.8.8-1.8 1.8s.9 1.8 1.8 1.8z"/></g></svg>